<?xml version="1.0" standalone="no"?>
<!DOCTYPE svg PUBLIC "-//W3C//DTD SVG 20010904//EN"
 "http://www.w3.org/TR/2001/REC-SVG-20010904/DTD/svg10.dtd">
<svg version="1.0" xmlns="http://www.w3.org/2000/svg"
 width="321.000000pt" height="321.000000pt" viewBox="0 0 321.000000 321.000000"
 preserveAspectRatio="xMidYMid meet">
<metadata>
Created by potrace 1.11, written by Peter Selinger 2001-2013
</metadata>
<g transform="translate(0.000000,321.000000) scale(0.100000,-0.100000)"
fill="#000000" stroke="none">
<path d="M1546 3166 c-54 -58 -76 -68 -157 -72 -60 -3 -71 0 -112 27 -77 51
-95 46 -132 -34 -41 -88 -184 -141 -265 -97 -29 16 -68 12 -78 -7 -5 -10 -13
-36 -17 -58 -10 -58 -39 -99 -97 -136 -44 -28 -59 -33 -119 -33 -41 -1 -73 -6
-81 -14 -8 -8 -12 -34 -10 -73 3 -69 -12 -109 -60 -160 -40 -43 -60 -55 -115
-64 -22 -3 -49 -15 -59 -26 -17 -19 -17 -23 -1 -68 24 -69 21 -109 -14 -180
-27 -55 -38 -66 -85 -89 -71 -34 -77 -56 -34 -123 57 -87 41 -204 -36 -273
-49 -44 -59 -87 -25 -105 10 -6 20 -9 22 -7 2 2 37 7 76 11 91 8 101 10 106
16 3 2 7 52 10 111 11 186 53 342 138 515 42 86 135 230 173 269 6 6 30 32 53
57 175 190 463 352 710 396 32 6 69 14 83 17 45 9 284 12 340 3 30 -5 71 -11
90 -14 397 -62 779 -350 968 -730 38 -77 87 -201 96 -248 3 -12 12 -58 22
-102 18 -88 25 -349 11 -445 -27 -179 -102 -379 -203 -538 l-34 -52 -30 15
c-17 9 -30 18 -30 21 0 3 13 24 28 47 133 198 201 416 207 667 3 154 -8 254
-45 383 -139 498 -576 871 -1085 925 -108 12 -302 6 -380 -12 -109 -24 -164
-40 -231 -66 -339 -135 -613 -415 -737 -755 -35 -95 -43 -126 -67 -270 -5 -27
-8 -110 -7 -183 1 -72 0 -132 -3 -132 -3 0 -23 7 -45 15 -81 29 -194 10 -253
-43 l-32 -29 0 -174 c0 -183 0 -183 50 -242 20 -25 99 -81 148 -106 176 -90
526 -98 1057 -25 61 9 126 17 145 20 19 2 46 6 60 9 137 26 658 27 750 0 8 -2
32 -6 52 -9 21 -3 56 -10 78 -16 22 -5 58 -14 80 -20 50 -13 187 -67 211 -84
18 -12 18 -13 -1 -33 l-19 -21 -78 33 c-83 36 -239 81 -313 90 -25 3 -72 9
-105 14 -60 9 -448 7 -495 -3 -14 -2 -54 -7 -90 -10 -36 -4 -103 -11 -150 -17
-87 -10 -132 -15 -210 -24 -25 -3 -83 -9 -130 -15 -389 -45 -706 -23 -1007 69
l-33 10 0 -139 0 -139 58 -7 c74 -10 360 -11 482 -1 111 9 228 22 360 42 52 8
113 17 135 20 22 3 51 8 65 11 51 9 67 12 160 28 52 9 106 18 120 21 14 3 52
10 85 15 33 5 71 12 84 15 94 18 282 32 419 29 190 -4 349 -31 507 -86 73 -26
71 -24 56 -42 -10 -12 -20 -11 -74 5 -132 41 -285 61 -462 63 -317 2 -545 -34
-985 -159 -324 -91 -350 -97 -510 -120 -100 -14 -383 -14 -458 0 l-43 8 3 -99
3 -99 50 -13 c63 -15 212 -21 296 -11 194 23 302 56 589 179 266 114 488 181
680 205 8 1 38 5 65 9 160 21 480 28 568 12 18 -3 50 -8 72 -11 22 -3 62 -11
89 -17 46 -10 48 -12 30 -25 -12 -9 -32 -12 -54 -9 -72 11 -198 20 -280 20
-86 -1 -268 -11 -305 -18 -11 -2 -42 -7 -70 -10 -27 -4 -57 -9 -65 -11 -8 -2
-31 -7 -50 -10 -199 -34 -421 -111 -655 -227 -159 -79 -258 -146 -280 -188
-13 -26 -13 -30 1 -45 35 -34 149 5 314 108 191 120 226 141 289 169 35 16 69
27 77 24 24 -9 158 -20 249 -20 213 1 382 42 578 141 62 31 75 34 120 28 l50
-7 -24 -19 c-69 -53 -271 -142 -397 -174 -149 -38 -381 -51 -512 -30 -67 11
-69 11 -156 -42 -131 -80 -125 -74 -107 -110 19 -39 50 -48 83 -24 59 42 92
53 149 48 77 -7 101 -18 154 -71 25 -25 51 -46 60 -46 14 0 67 47 67 60 0 17
87 53 139 57 57 5 77 -1 160 -47 18 -10 39 -16 47 -13 8 3 28 32 45 64 27 50
40 63 87 86 59 29 122 37 162 20 74 -30 96 -21 110 51 15 69 37 102 98 144 39
28 57 33 107 35 33 1 68 2 77 2 23 1 32 35 29 101 -2 46 2 62 27 101 38 59 86
95 137 104 80 14 94 38 66 108 -20 51 -16 102 13 161 27 55 45 73 108 105 47
24 57 46 36 79 -45 70 -60 113 -54 155 13 90 20 103 72 153 24 23 44 51 44 63
0 18 -45 71 -61 71 -3 0 -16 19 -29 42 -17 31 -24 58 -24 108 -1 58 3 71 32
117 41 64 37 88 -21 113 -56 25 -85 54 -107 105 -27 62 -31 103 -15 149 29 82
19 104 -50 113 -49 7 -93 33 -125 73 -43 54 -58 98 -54 153 6 77 -4 88 -86 86
-58 -1 -76 3 -114 25 -59 34 -95 83 -110 147 -15 71 -35 82 -106 59 -65 -21
-97 -18 -168 16 -44 22 -58 36 -89 90 -22 37 -44 64 -53 64 -9 0 -39 -15 -65
-32 -39 -26 -59 -33 -100 -32 -91 0 -121 11 -174 64 -28 28 -57 50 -67 50 -9
0 -35 -20 -58 -44z m-1308 -1862 c12 -4 29 -18 36 -33 26 -50 0 -104 -58 -120
l-31 -9 37 -16 c21 -9 48 -16 61 -16 32 0 88 19 110 38 21 18 16 23 56 -63 18
-38 45 -91 62 -117 16 -27 29 -50 29 -52 0 -6 -101 13 -158 29 -80 24 -141 57
-185 102 -120 119 -92 292 41 257z"/>
</g>
</svg>
